<mxfile host="Electron" modified="2024-03-23T06:51:22.524Z" agent="Mozilla/5.0 (X11; Linux x86_64) AppleWebKit/537.36 (KHTML, like Gecko) draw.io/24.0.4 Chrome/120.0.6099.109 Electron/28.1.0 Safari/537.36" etag="D50Ro-7wlrEwr3Nnub5C" version="24.0.4" type="device">
  <diagram name="Página-1" id="RgmTab9e6C-XwI5EQeYu">
    <mxGraphModel dx="1346" dy="663" grid="1" gridSize="10" guides="1" tooltips="1" connect="1" arrows="1" fold="1" page="1" pageScale="1" pageWidth="827" pageHeight="1169" math="0" shadow="0">
      <root>
        <mxCell id="0" />
        <mxCell id="1" parent="0" />
        <mxCell id="WA9XJrbDGoWofDYyzGcX-3" value="TP 1 B&lt;span style=&quot;background-color: initial;&quot;&gt;iblioteca&lt;/span&gt;&lt;div&gt;&lt;div&gt;&lt;br&gt;&lt;/div&gt;&lt;/div&gt;" style="text;html=1;align=center;verticalAlign=middle;whiteSpace=wrap;rounded=0;" parent="1" vertex="1">
          <mxGeometry x="-800" y="20" width="60" height="30" as="geometry" />
        </mxCell>
        <mxCell id="WA9XJrbDGoWofDYyzGcX-4" value="Bibliotecario&lt;div&gt;&lt;br&gt;&lt;/div&gt;" style="shape=umlActor;verticalLabelPosition=bottom;verticalAlign=top;html=1;" parent="1" vertex="1">
          <mxGeometry x="-780" y="80" width="65" height="110" as="geometry" />
        </mxCell>
        <mxCell id="WA9XJrbDGoWofDYyzGcX-11" value="Ingresando préstamo&lt;span style=&quot;white-space: pre;&quot;&gt;&#x9;&lt;/span&gt;" style="ellipse;whiteSpace=wrap;html=1;" parent="1" vertex="1">
          <mxGeometry x="-567.5" y="100" width="130" height="60" as="geometry" />
        </mxCell>
        <mxCell id="WA9XJrbDGoWofDYyzGcX-13" value="" style="endArrow=block;startArrow=block;endFill=1;startFill=1;html=1;rounded=0;" parent="1" edge="1">
          <mxGeometry width="160" relative="1" as="geometry">
            <mxPoint x="-727.5" y="124.71000000000004" as="sourcePoint" />
            <mxPoint x="-567.5" y="124.71000000000004" as="targetPoint" />
            <Array as="points">
              <mxPoint x="-647.5" y="124.71000000000004" />
            </Array>
          </mxGeometry>
        </mxCell>
        <mxCell id="WA9XJrbDGoWofDYyzGcX-89" value="Biblioteca" style="shape=umlFrame;whiteSpace=wrap;html=1;pointerEvents=0;width=70;height=40;container=1;" parent="1" vertex="1">
          <mxGeometry x="-590" y="40" width="430" height="300" as="geometry" />
        </mxCell>
        <mxCell id="Pv_w2b7YQCcppw9MwQbE-2" value="(T)&amp;nbsp;&lt;div&gt;Emitir reclamos a morosos&lt;/div&gt;" style="ellipse;whiteSpace=wrap;html=1;align=center;dashed=1;" parent="WA9XJrbDGoWofDYyzGcX-89" vertex="1">
          <mxGeometry x="90" y="230" width="90" height="70" as="geometry" />
        </mxCell>
        <mxCell id="Pv_w2b7YQCcppw9MwQbE-4" value="Registrando nuevo socio" style="ellipse;whiteSpace=wrap;html=1;" parent="WA9XJrbDGoWofDYyzGcX-89" vertex="1">
          <mxGeometry x="240" y="40" width="110" height="70" as="geometry" />
        </mxCell>
        <mxCell id="Pv_w2b7YQCcppw9MwQbE-7" value="Aplicando sanción" style="ellipse;whiteSpace=wrap;html=1;" parent="WA9XJrbDGoWofDYyzGcX-89" vertex="1">
          <mxGeometry x="250" y="140" width="120" height="70" as="geometry" />
        </mxCell>
        <mxCell id="F37ogFYBHBy6prtXAf4V-3" value="Mantener libros" style="ellipse;whiteSpace=wrap;html=1;" vertex="1" parent="WA9XJrbDGoWofDYyzGcX-89">
          <mxGeometry x="320" y="230" width="90" height="40" as="geometry" />
        </mxCell>
        <mxCell id="F37ogFYBHBy6prtXAf4V-2" value="Mantener socios" style="ellipse;whiteSpace=wrap;html=1;" vertex="1" parent="WA9XJrbDGoWofDYyzGcX-89">
          <mxGeometry x="220" y="230" width="90" height="40" as="geometry" />
        </mxCell>
        <mxCell id="WA9XJrbDGoWofDYyzGcX-91" value="Ingresando devolución&lt;span style=&quot;white-space: pre;&quot;&gt;&#x9;&lt;/span&gt;" style="ellipse;whiteSpace=wrap;html=1;" parent="1" vertex="1">
          <mxGeometry x="-560" y="200" width="122.5" height="60" as="geometry" />
        </mxCell>
        <mxCell id="WA9XJrbDGoWofDYyzGcX-92" value="" style="endArrow=block;startArrow=block;endFill=1;startFill=1;html=1;rounded=0;entryX=0;entryY=0.5;entryDx=0;entryDy=0;" parent="1" source="WA9XJrbDGoWofDYyzGcX-4" target="WA9XJrbDGoWofDYyzGcX-91" edge="1">
          <mxGeometry width="160" relative="1" as="geometry">
            <mxPoint x="-727.5" y="170" as="sourcePoint" />
            <mxPoint x="-567.5" y="170" as="targetPoint" />
          </mxGeometry>
        </mxCell>
        <mxCell id="Pv_w2b7YQCcppw9MwQbE-1" value="Socio&lt;div&gt;&lt;br&gt;&lt;/div&gt;" style="shape=umlActor;verticalLabelPosition=bottom;verticalAlign=top;html=1;outlineConnect=0;" parent="1" vertex="1">
          <mxGeometry x="-745" y="270" width="75" height="120" as="geometry" />
        </mxCell>
        <mxCell id="Pv_w2b7YQCcppw9MwQbE-3" value="" style="endArrow=classic;html=1;rounded=0;entryX=1;entryY=0.3333333333333333;entryDx=0;entryDy=0;entryPerimeter=0;exitX=0;exitY=0.5;exitDx=0;exitDy=0;" parent="1" source="Pv_w2b7YQCcppw9MwQbE-2" target="Pv_w2b7YQCcppw9MwQbE-1" edge="1">
          <mxGeometry width="50" height="50" relative="1" as="geometry">
            <mxPoint x="-560" y="300" as="sourcePoint" />
            <mxPoint x="-510" y="250" as="targetPoint" />
          </mxGeometry>
        </mxCell>
        <mxCell id="Pv_w2b7YQCcppw9MwQbE-5" value="" style="endArrow=block;dashed=1;endFill=0;endSize=12;html=1;rounded=0;entryX=1;entryY=0.5;entryDx=0;entryDy=0;exitX=-0.005;exitY=0.693;exitDx=0;exitDy=0;exitPerimeter=0;" parent="1" source="Pv_w2b7YQCcppw9MwQbE-4" target="WA9XJrbDGoWofDYyzGcX-11" edge="1">
          <mxGeometry width="160" relative="1" as="geometry">
            <mxPoint x="-420" y="80" as="sourcePoint" />
            <mxPoint x="-260" y="80" as="targetPoint" />
          </mxGeometry>
        </mxCell>
        <mxCell id="Pv_w2b7YQCcppw9MwQbE-6" value="Extiende" style="edgeLabel;html=1;align=center;verticalAlign=middle;resizable=0;points=[];" parent="Pv_w2b7YQCcppw9MwQbE-5" vertex="1" connectable="0">
          <mxGeometry x="0.0459" y="-1" relative="1" as="geometry">
            <mxPoint x="6" as="offset" />
          </mxGeometry>
        </mxCell>
        <mxCell id="Pv_w2b7YQCcppw9MwQbE-8" value="" style="endArrow=block;dashed=1;endFill=0;endSize=12;html=1;rounded=0;entryX=1;entryY=0.5;entryDx=0;entryDy=0;exitX=0;exitY=0.5;exitDx=0;exitDy=0;" parent="1" source="Pv_w2b7YQCcppw9MwQbE-7" target="WA9XJrbDGoWofDYyzGcX-91" edge="1">
          <mxGeometry width="160" relative="1" as="geometry">
            <mxPoint x="-344" y="210" as="sourcePoint" />
            <mxPoint x="-430" y="211" as="targetPoint" />
          </mxGeometry>
        </mxCell>
        <mxCell id="Pv_w2b7YQCcppw9MwQbE-9" value="Extiende" style="edgeLabel;html=1;align=center;verticalAlign=middle;resizable=0;points=[];" parent="Pv_w2b7YQCcppw9MwQbE-8" vertex="1" connectable="0">
          <mxGeometry x="0.0459" y="-1" relative="1" as="geometry">
            <mxPoint x="6" as="offset" />
          </mxGeometry>
        </mxCell>
        <mxCell id="F37ogFYBHBy6prtXAf4V-1" value="Sin definir&lt;div&gt;&lt;br&gt;&lt;/div&gt;" style="shape=umlActor;verticalLabelPosition=bottom;verticalAlign=top;html=1;outlineConnect=0;" vertex="1" parent="1">
          <mxGeometry x="-390" y="390" width="30" height="60" as="geometry" />
        </mxCell>
        <mxCell id="F37ogFYBHBy6prtXAf4V-4" value="" style="endArrow=classic;html=1;rounded=0;entryX=0.5;entryY=1;entryDx=0;entryDy=0;" edge="1" parent="1" target="F37ogFYBHBy6prtXAf4V-2">
          <mxGeometry width="50" height="50" relative="1" as="geometry">
            <mxPoint x="-360" y="410" as="sourcePoint" />
            <mxPoint x="-310" y="360" as="targetPoint" />
          </mxGeometry>
        </mxCell>
        <mxCell id="F37ogFYBHBy6prtXAf4V-5" value="" style="endArrow=classic;html=1;rounded=0;entryX=0;entryY=1;entryDx=0;entryDy=0;" edge="1" parent="1" target="F37ogFYBHBy6prtXAf4V-3">
          <mxGeometry width="50" height="50" relative="1" as="geometry">
            <mxPoint x="-360" y="420" as="sourcePoint" />
            <mxPoint x="-310" y="370" as="targetPoint" />
          </mxGeometry>
        </mxCell>
      </root>
    </mxGraphModel>
  </diagram>
</mxfile>
